<svg width="73" height="55" viewBox="0 0 73 55" fill="none" xmlns="http://www.w3.org/2000/svg">
<path fill-rule="evenodd" clip-rule="evenodd" d="M48.8267 18.4525V19.6263C48.2521 19.15 47.6631 18.9047 47.0501 18.9047C46.3749 18.9047 45.805 19.15 45.3453 19.6359C44.8808 20.117 44.6509 20.7087 44.6509 21.4063C44.6509 22.1038 44.8856 22.6811 45.3453 23.1573C45.8098 23.6336 46.3797 23.8693 47.0501 23.8693C47.3997 23.8693 47.6966 23.8116 47.936 23.7009C48.0749 23.6432 48.2138 23.5662 48.3622 23.47C48.5107 23.3738 48.6591 23.2584 48.822 23.1237V24.3215C48.2569 24.6438 47.6631 24.8074 47.0357 24.8074C46.1019 24.8074 45.3022 24.4803 44.6365 23.8212C43.9757 23.1573 43.6501 22.3588 43.6501 21.4255C43.6501 20.5884 43.9278 19.838 44.4737 19.1789C45.1537 18.3803 46.0349 17.9714 47.1124 17.9714C47.6966 17.9714 48.2712 18.1302 48.8172 18.4573L48.8267 18.4525ZM26.5108 19.0298H29.1398V18.0965H25.5195V24.6823H29.1398V23.7442H26.5108V21.5458H29.0584V20.6125H26.5108V19.0298ZM8.47146 22.8687L7.68131 24.6775H6.57031L9.47711 18.1013H10.1811C10.7078 19.4291 13.0879 24.6823 13.0879 24.6823H11.9673L11.1676 22.8735L11.1628 22.8687H8.47146ZM10.7892 21.9354L9.81712 19.6167L8.85457 21.9354H10.7892ZM40.5756 33.2597H37.8652L37.8556 33.2645V34.1978H39.4886C39.4455 34.6596 39.2252 35.0589 38.8421 35.3908C38.4542 35.7228 38.0184 35.8863 37.5299 35.8863C36.9601 35.8863 36.4285 35.665 35.9401 35.2273C35.4181 34.751 35.1547 34.1256 35.1547 33.4137C35.1547 32.7017 35.3893 32.11 35.8634 31.6385C36.3327 31.1574 36.9122 30.9169 37.6066 30.9169C38.3776 30.9169 39.0336 31.2777 39.57 31.9945L40.2739 31.3162C39.8621 30.8448 39.4455 30.5032 39.0241 30.2963C38.5787 30.0799 38.0998 29.974 37.5874 29.974C36.6392 29.974 35.8299 30.3108 35.1643 30.9795C34.4938 31.6433 34.1634 32.4756 34.1634 33.4088C34.1634 34.3421 34.4938 35.1455 35.1451 35.8142C35.8012 36.478 36.5626 36.8148 37.5012 36.8148C38.4398 36.8148 39.2156 36.4636 39.8238 35.7805C40.092 35.4726 40.2835 35.1407 40.3984 34.7895C40.5182 34.4095 40.5756 33.9717 40.5756 33.4762V33.2597ZM23.5227 31.0372H20.8937V32.6199H23.4461V33.5532H20.8937V35.7516H23.5227V36.6849H19.9072V30.1039H23.5227V31.0372ZM30.6533 34.8761H27.9715L27.1814 36.6849H26.0704L28.9724 30.1039H29.6716C30.2031 31.4317 32.5784 36.6849 32.5784 36.6849H31.4578L30.6533 34.8761ZM30.2845 33.9428L29.3172 31.6241L28.3499 33.9428H30.2845ZM44.555 30.1039V35.7516H46.48V36.6849H43.5685V30.1039H44.555ZM49.4731 36.6849V30.1039H53.0886V31.0372H50.4644V32.6199H53.0168V33.5532H50.4644V35.7516H53.0886V36.6849H49.4731ZM34.6472 21.8729L36.6776 24.6823H35.466L33.5936 21.9883H33.4164V24.6823H32.4252V18.0965H33.5841C34.4508 18.0965 35.0782 18.2601 35.4613 18.5872C35.8875 18.9528 36.0982 19.4291 36.0982 20.0256C36.0982 20.4922 35.9641 20.8963 35.6959 21.2283C35.4325 21.5602 35.0782 21.7767 34.6424 21.8729H34.6472ZM33.4164 21.1176H33.7277C34.6615 21.1176 35.1308 20.7568 35.1308 20.04C35.1308 19.3665 34.6759 19.0298 33.7612 19.0298H33.4117V21.1176H33.4164ZM39.6752 18.0965H40.6617V24.6775H39.6752V18.0965ZM53.2995 22.8687H55.986V22.8735L56.7905 24.6823H57.9063C57.9063 24.6823 55.5263 19.4291 54.9995 18.1013H54.3003L51.3935 24.6775H52.5093L53.2995 22.8687ZM54.6403 19.6167L55.6125 21.9354H55.6077H53.6778L54.6403 19.6167ZM17.0529 20.7039L18.8104 24.6823H19.0785L20.8791 20.7039L21.5113 24.6823H22.5265L21.3676 18.0484H21.0803L18.954 22.7196L16.9044 18.0484H16.6219L15.3241 24.6823H16.3489L17.0529 20.7039ZM66.4303 18.0965V24.6823H66.0472L61.4404 20.0545V24.6823H60.4539V18.0484H60.837L65.439 22.6763V18.0965H66.4303Z" fill="#24272A"/>
</svg>
