<svg width="88" height="55" viewBox="0 0 88 55" xmlns="http://www.w3.org/2000/svg" xmlns:xlink="http://www.w3.org/1999/xlink">
    <defs>
        <path d="m15.504 38.956-1.927-4.58h-.847l2.359 5.53h.773l2.336-5.53h-.847l-1.847 4.58zm5.422-4.58-2.472 5.53.829-.001.679-1.61h2.622l.673 1.612h.853l-2.439-5.53h-.745zm-.691 3.27 1.043-2.474 1.034 2.474h-2.077zm9.915 1.114-3.644-4.386h-.746v5.532h.729V35.52l3.688 4.39h.724v-5.54h-.75v4.389zm9.88-2.023H36.39V34.37h-.752v5.545h.752v-2.533h3.641v2.533h.752V34.37h-.752v2.367zm3-2.367v5.557h4.366v-.645h-3.612v-1.893h3.239v-.646h-3.239v-1.727h3.612v-.646H43.03zM53.8 37.674c-.01.335-.155 1.641-1.805 1.641h-.013c-1.75 0-1.807-1.47-1.805-1.691h.005V34.37h-.75v3.225l-.004.006c.055 2.067 1.637 2.357 2.235 2.393v.002h.06c.104.004.166 0 .166 0h.2s.062.004.166 0h.06v-.002c.59-.036 2.137-.32 2.232-2.31h.003V34.37h-.749v3.304h-.001zm5.704-.877c-1.688-.288-2.15-.433-2.15-1.094 0-.66 1.06-.797 1.873-.759.814.039 1.37.212 1.496.734h.768s-.039-1.378-2.443-1.378c-2.403 0-2.416 1.166-2.42 1.506-.005.34.101 1.204 1.824 1.505 1.721.302 2.442.386 2.455 1.069.013.683-.89.976-1.836.976-.946 0-1.691-.196-1.832-.87h-.767S56.443 40 58.96 40c2.519 0 2.68-1.102 2.68-1.705 0-.604-.448-1.21-2.136-1.498zm4.164-2.435v5.58h4.385v-.648h-3.627v-1.9h3.253v-.65h-3.253V35.01h3.627v-.648h-4.385zm10.846.008v4.415l-3.665-4.411h-.75v5.563h.733v-4.41l3.708 4.416h.728V34.37h-.754zM41.357 15l.337.88h-.865l4.624 12.046-1.448 3.774-6.073-15.82h-.865L36.73 15h4.627zm6.854 5.744-2.332 6.077-1.45-3.776.884-2.3h2.898zM51.28 15l-.339.88h-.863l-1.375 3.58h-2.898l1.374-3.58h-1.008l.337-.88h4.772z" id="amyeocll0a"/>
    </defs>
    <g fill="none" fill-rule="evenodd">
        <mask id="3e2uz9u7ub" fill="#fff">
            <use xlink:href="#amyeocll0a"/>
        </mask>
        <use fill="#000" fill-rule="nonzero" xlink:href="#amyeocll0a"/>
        <g mask="url(#3e2uz9u7ub)" fill="#000">
            <path d="M0 0h88v55H0z"/>
        </g>
    </g>
</svg>
