<svg xmlns="http://www.w3.org/2000/svg" width="64" height="35" viewBox="0 0 50 18">
  <g id="Group_6146" data-name="Group 6146" transform="translate(-603 -964)">
    <rect id="Rectangle_20" data-name="Rectangle 20" width="64" height="32" rx="4" transform="translate(595 957)" fill="transparent"/>
    <g id="_000000ff" data-name="#000000ff" transform="translate(610.664 964.662)">
      <path id="Path_2717" data-name="Path 2717" d="M3,2.25h3.4a2.361,2.361,0,0,1,1.593.615A1.716,1.716,0,0,1,8.55,4.153a1.839,1.839,0,0,1-.409,1.231,1.962,1.962,0,0,1-.881.589,1.588,1.588,0,0,1,.9.6,1.4,1.4,0,0,1,.228.8q0,.775,0,1.549H6.949c0-.415,0-.829,0-1.244a1.22,1.22,0,0,0-.292-.829,1.288,1.288,0,0,0-.87-.309c-.324,0-.647,0-.971,0,0-.385,0-.77,0-1.156.467,0,.934,0,1.4,0A.88.88,0,0,0,7,4.888a1.03,1.03,0,0,0-.211-1.211,1.09,1.09,0,0,0-.7-.219c-.577,0-1.153,0-1.73,0q0,2.133,0,4.267H3Q3,4.987,3,2.25Z" transform="translate(-2.997 -2.25)" fill="#010a35"/>
      <path id="Path_2718" data-name="Path 2718" d="M398,2.25h1.4q0,2.155,0,4.31h1.078a.948.948,0,0,0,.917-.839.964.964,0,0,0-.738-1.082,7.118,7.118,0,0,0-.777-.017q0-.583,0-1.164c.3,0,.6,0,.9,0a2,2,0,0,1,1.619.825,2.277,2.277,0,0,1,.374,1.779,2.228,2.228,0,0,1-1.554,1.562,3.581,3.581,0,0,1-1.139.113H398Q398,4.993,398,2.25Z" transform="translate(-380.799 -2.25)" fill="#010a35"/>
      <path id="Path_2719" data-name="Path 2719" d="M651.25,2.253h1.415q0,1.306,0,2.612a6.035,6.035,0,0,0,.887-.028.823.823,0,0,0,.591-.528,2.418,2.418,0,0,0,.114-.861c.463,0,.927,0,1.39,0a2.723,2.723,0,0,1-.243,1.335,1.624,1.624,0,0,1-.954.665,1.616,1.616,0,0,1,1.065.817,3.343,3.343,0,0,1,.164,1.461h-1.4a2.61,2.61,0,0,0-.135-1.215,1.036,1.036,0,0,0-.854-.479c-.207-.009-.415,0-.623,0q0,.849,0,1.7H651.25Q651.251,4.99,651.25,2.253Z" transform="translate(-623.025 -2.252)" fill="#010a35"/>
      <path id="Path_2720" data-name="Path 2720" d="M522.984,28.4a3.237,3.237,0,0,1,2.07.274,2.069,2.069,0,0,1,1.009,1.223,2.291,2.291,0,0,1-.28,1.943,2.35,2.35,0,0,1-1.426.914,3.1,3.1,0,0,1-1.972-.188,2.218,2.218,0,0,1-1.224-1.429,2.242,2.242,0,0,1,.382-1.919,2.379,2.379,0,0,1,1.441-.819m.346,1.085a1.132,1.132,0,0,0-.289,2.07,1.123,1.123,0,0,0,1.073.052,1.136,1.136,0,0,0-.784-2.122Z" transform="translate(-498.533 -27.203)" fill="#010a35"/>
      <path id="Path_2721" data-name="Path 2721" d="M141.762,30.99A2.127,2.127,0,0,1,143.5,30c.908,0,1.816,0,2.724,0-.007.417.013.836-.01,1.25-.3.47-.6.937-.9,1.405-.451,0-.9,0-1.352,0,.3-.5.6-.991.892-1.49-.364,0-.728,0-1.092,0a.95.95,0,0,0-.818.458.98.98,0,0,0,.858,1.492h2.418q0,.582,0,1.164H143.9a3.14,3.14,0,0,1-.952-.093,2.123,2.123,0,0,1-1.354-1.237A2.166,2.166,0,0,1,141.762,30.99Z" transform="translate(-135.407 -28.787)" fill="#010a35"/>
      <path id="Path_2722" data-name="Path 2722" d="M267.445,30.409A2.111,2.111,0,0,1,268.686,30h2.677c0,.416,0,.832,0,1.249q-.45.7-.9,1.407h-1.35c.294-.5.6-.993.892-1.491-.4,0-.8,0-1.193,0a.976.976,0,0,0,.066,1.945c.832.006,1.663,0,2.494,0,0,.388,0,.776,0,1.164-.894,0-1.789.005-2.683,0a2.094,2.094,0,0,1-1.484-.619,2.147,2.147,0,0,1,.237-3.242Z" transform="translate(-255.102 -28.788)" fill="#010a35"/>
      <path id="Path_2723" data-name="Path 2723" d="M408.888,177.957c3.061-.338,6.132-.58,9.2-.777-1.661.423-3.329.831-4.975,1.315a67.529,67.529,0,0,0-6.791,2.4c-1.165-.687-2.334-1.367-3.5-2.056C404.833,178.449,406.86,178.188,408.888,177.957Z" transform="translate(-385.421 -169.563)" fill="#010a35"/>
      <path id="Path_2724" data-name="Path 2724" d="M33.6,181.49c3.83,0,7.661-.006,11.49.005.837.421,1.644.9,2.46,1.361q4.744,2.725,9.439,5.536c.752.451,1.505.9,2.25,1.365a5.545,5.545,0,0,1,.487.326c-3.382-1.421-6.734-2.918-10.164-4.223a80.232,80.232,0,0,0-8.943-2.848c-1.675-.43-3.364-.8-5.06-1.141C34.908,181.736,34.249,181.633,33.6,181.49Z" transform="translate(-32.268 -173.686)" fill="#010a35"/>
      <path id="Path_2725" data-name="Path 2725" d="M65.243,256.463a23.884,23.884,0,0,1,5.136-2.443c1.065.287,2.113.642,3.162.982a17.341,17.341,0,0,0-3.946,2.152,10.575,10.575,0,0,0-2.1,1.991q-2.6,0-5.2,0A12.322,12.322,0,0,1,65.243,256.463Z" transform="translate(-59.708 -243.058)" fill="#010a35"/>
      <path id="Path_2726" data-name="Path 2726" d="M227.759,287.546a15.269,15.269,0,0,1,4.068-2.606c.833.291,1.661.6,2.484.919a12.412,12.412,0,0,0-2.015,1.679,9.473,9.473,0,0,0-.922,1.181c-1.568,0-3.137,0-4.705,0A8.375,8.375,0,0,1,227.759,287.546Z" transform="translate(-216.931 -272.632)" fill="#010a35"/>
    </g>
  </g>
</svg>