<svg width="40" height="40" viewBox="0 0 40 40" xmlns="http://www.w3.org/2000/svg" xmlns:xlink="http://www.w3.org/1999/xlink">
    <defs>
        <path id="jrx570z8ka" d="M0 0h13.302v17.427H0z"/>
        <path d="M7.346.001c.95.02 5.797.403 6.932 6.077 0 0 1.481 5.642-7.094 12.672C-1.392 11.72.099 6.078.099 6.078 1.234.404 6.081.02 7.03 0zm-.09 1.008H7.12c-.831 0-5.025.254-6.027 5.266l-.014.06-.006.03c-.078.42-.761 5.122 6.11 11.064 6.975-6.03 6.176-10.782 6.114-11.091l-.003-.016-.01-.047c-1.002-5.012-5.197-5.266-6.027-5.266zm-.069 2.563a3.58 3.58 0 0 1 3.588 3.572 3.58 3.58 0 0 1-3.588 3.571A3.58 3.58 0 0 1 3.6 7.144a3.58 3.58 0 0 1 3.587-3.572zm0 1.009a2.572 2.572 0 0 0-2.574 2.563 2.572 2.572 0 0 0 2.574 2.562 2.572 2.572 0 0 0 2.574-2.562A2.572 2.572 0 0 0 7.187 4.58z" id="ldjti4kwtb"/>
    </defs>
    <g fill="none" fill-rule="evenodd">
        <g transform="translate(13.125 11.25)">
            <mask id="ra3tqm65wc" fill="#fff">
                <use xlink:href="#ldjti4kwtb"/>
            </mask>
            <use fill="#0E3051" xlink:href="#ldjti4kwtb"/>
            <g mask="url(#ra3tqm65wc)" fill="#0E3051">
                <path d="M-12.5-10.625h40v40h-40z"/>
            </g>
        </g>
    </g>
</svg>
