<svg width="40" height="40" viewBox="0 0 40 40" xmlns="http://www.w3.org/2000/svg" xmlns:xlink="http://www.w3.org/1999/xlink">
    <defs>
        <path d="M6.43 0a3.76 3.76 0 1 0 0 7.521A3.76 3.76 0 0 0 6.43 0m0 .938A2.826 2.826 0 0 1 9.253 3.76 2.826 2.826 0 0 1 6.43 6.584 2.826 2.826 0 0 1 3.607 3.76 2.826 2.826 0 0 1 6.43.937m.014 7.268A6.444 6.444 0 0 0 0 14.65h12.887a6.444 6.444 0 0 0-6.443-6.444m0 .938a5.515 5.515 0 0 1 5.426 4.568H1.018a5.515 5.515 0 0 1 5.426-4.568" id="wgy7d5j8oa"/>
    </defs>
    <g transform="translate(13.75 12.5)" fill="none" fill-rule="evenodd">
        <mask id="kvebzqckyb" fill="#fff">
            <use xlink:href="#wgy7d5j8oa"/>
        </mask>
        <use fill="#0E3051" xlink:href="#wgy7d5j8oa"/>
        <g mask="url(#kvebzqckyb)" fill="#0E3051">
            <path d="M-13.75-12.5h40v40h-40z"/>
        </g>
    </g>
</svg>
